<svg xmlns="http://www.w3.org/2000/svg"  viewBox="0 0 100 100" width="200px" height="200px" baseProfile="basic"><circle cx="50" cy="50" r="35" fill="#fefdef"/><path fill="#00a6a6" d="M62.735,36.066l-2.096-2.634l2.269-2.08c2.961-2.717,5.016-4.344,7.236-5.726 c1.188-0.74,2.714-1.415,3.912-1.777c-2.36-2.134-5.012-3.947-7.884-5.387c-3.393,0.208-7.864,1.576-12.622,3.89 c-1.655,0.806-3.093,1.448-3.2,1.431c-0.105-0.021-1.454-0.677-3.001-1.461h0.003c-3.074-1.559-7.813-3.232-10.432-3.683 c-0.59-0.101-1.444-0.17-2.248-0.195c-2.867,1.433-5.515,3.241-7.874,5.365c0.254,0.073,0.531,0.162,0.864,0.274 c2.718,0.92,5.625,2.926,10.133,7.001l2.634,2.38l-1.44,1.763c-6.671,8.186-13.713,19.794-16.363,26.974 c-0.997,2.701-1.569,5.393-1.628,7.346c1.299,1.951,2.783,3.769,4.433,5.422c-0.001-0.063-0.011-0.118-0.011-0.183 c0-4.424,4.866-12.171,13.192-21.001c4.727-5.016,11.313-10.894,12.026-10.735c1.385,0.309,12.456,11.102,16.601,16.183 c5.283,6.475,8.26,12.002,8.416,15.44c1.618-1.658,3.072-3.475,4.342-5.424c-0.073-1.648-0.485-3.762-1.186-5.899 C76.645,56.736,69.394,44.432,62.735,36.066z"/><path fill="#1f212b" d="M75.867,72.884c-0.858-3.551-3.701-8.407-8.238-13.968c-3.998-4.899-15.271-15.996-16.881-16.354 c-1.381-0.312-10.245,8.489-12.499,10.881c-7.885,8.361-12.639,15.681-13.259,20.349c-1.268-1.358-2.438-2.83-3.485-4.389 c0.085-1.935,0.675-4.546,1.591-7.029c2.636-7.141,9.635-18.676,16.282-26.83l1.439-1.763c0.168-0.206,0.146-0.509-0.053-0.688 l-2.634-2.38c-4.539-4.104-7.525-6.162-10.308-7.104c-0.01-0.003-0.019-0.006-0.027-0.01c2.13-1.822,4.477-3.385,6.987-4.651 c0.782,0.029,1.542,0.097,2.053,0.185c2.553,0.439,7.239,2.094,10.256,3.619c0.01,0.006,0.021,0.012,0.031,0.018 c0.861,0.436,2.889,1.456,3.15,1.509c0.142,0.024,0.359,0.054,3.495-1.477c4.608-2.24,8.97-3.599,12.3-3.831 c2.523,1.277,4.876,2.85,7.008,4.683c-1.097,0.405-2.263,0.968-3.197,1.549c-2.262,1.41-4.312,3.031-7.31,5.783l-2.269,2.08 c-0.193,0.177-0.217,0.474-0.054,0.68l2.096,2.634C69,44.739,76.176,56.909,78.34,63.506c0.44,1.342,0.764,2.707,0.961,3.958 c0.272-0.393,0.542-0.786,0.811-1.18c-0.204-1-0.479-2.044-0.823-3.09c-2.193-6.69-9.444-18.999-16.162-27.438l-1.806-2.269 l1.925-1.766c2.949-2.706,4.957-4.296,7.163-5.67c1.091-0.68,2.579-1.355,3.792-1.723c0.173-0.052,0.304-0.193,0.344-0.369 c0.039-0.176-0.02-0.359-0.153-0.48c-2.398-2.168-5.088-4.006-7.995-5.464c-0.078-0.039-0.167-0.06-0.254-0.052 c-3.476,0.213-8.024,1.612-12.811,3.939c-1.477,0.72-2.581,1.212-2.952,1.353c-0.354-0.159-1.37-0.652-2.769-1.361 c-0.01-0.006-0.021-0.012-0.031-0.018c-3.142-1.594-7.885-3.267-10.574-3.73c-0.581-0.099-1.447-0.175-2.316-0.202 c-0.085-0.009-0.166,0.015-0.239,0.053c-2.897,1.448-5.584,3.279-7.985,5.44c-0.135,0.122-0.193,0.308-0.152,0.484 s0.175,0.318,0.35,0.368c0.248,0.071,0.518,0.157,0.842,0.267c2.642,0.895,5.527,2.894,9.958,6.899l2.28,2.061l-1.139,1.396 c-6.707,8.229-13.776,19.886-16.444,27.116c-0.992,2.688-1.597,5.422-1.659,7.504c-0.003,0.104,0.026,0.205,0.084,0.292 c1.322,1.984,2.835,3.835,4.496,5.499c0.096,0.096,0.224,0.146,0.354,0.146c0.067,0,0.135-0.014,0.198-0.041 c0.188-0.081,0.308-0.27,0.302-0.475c-0.001-0.01-0.011-0.157-0.012-0.167c0-4.266,4.881-11.988,13.057-20.658 c4.766-5.058,10.586-10.153,11.618-10.565c1.552,0.676,12.056,10.836,16.258,15.986c4.721,5.784,7.654,10.918,8.209,14.307 C75.513,73.488,75.51,73.473,75.867,72.884z"/><path fill="#1f212b" d="M50,86c-19.851,0-36-16.149-36-36s16.149-36,36-36s36,16.149,36,36S69.851,86,50,86z M50,16 c-18.748,0-34,15.252-34,34s15.252,34,34,34s34-15.252,34-34S68.748,16,50,16z"/><path fill="#1f212b" d="M20.997,61.47c-0.202,0-0.392-0.123-0.468-0.323C19.183,57.59,18.5,53.839,18.5,50 c0-8.906,3.796-17.436,10.415-23.402c0.205-0.188,0.521-0.17,0.706,0.036c0.186,0.205,0.169,0.521-0.036,0.706 C23.176,33.118,19.5,41.377,19.5,50c0,3.718,0.661,7.349,1.965,10.793c0.098,0.258-0.032,0.547-0.291,0.645 C21.116,61.459,21.056,61.47,20.997,61.47z"/><path fill="#1f212b" d="M50,81.5c-8.438,0-16.364-3.293-22.32-9.272c-0.194-0.195-0.194-0.512,0.002-0.707 c0.195-0.193,0.512-0.195,0.707,0.002C34.155,77.312,41.83,80.5,50,80.5c8.47,0,16.341-3.391,22.163-9.547 c0.189-0.2,0.506-0.211,0.707-0.02c0.2,0.189,0.209,0.506,0.02,0.707C66.877,77.998,58.748,81.5,50,81.5z"/><path fill="#1f212b" d="M79.704,59.398c-0.047,0-0.096-0.007-0.144-0.021c-0.265-0.079-0.415-0.358-0.336-0.623 C80.071,55.926,80.5,52.98,80.5,50c0-5.985-1.732-11.779-5.011-16.755c-0.151-0.23-0.088-0.541,0.143-0.693 s0.54-0.088,0.693,0.143C79.71,37.834,81.5,43.818,81.5,50c0,3.077-0.443,6.119-1.316,9.042 C80.118,59.259,79.92,59.398,79.704,59.398z"/><path fill="#1f212b" d="M73.989,30.864c-0.145,0-0.288-0.062-0.387-0.183c-0.196-0.239-0.38-0.469-0.559-0.692 c-0.611-0.765-1.14-1.425-1.886-2.124c-0.201-0.189-0.212-0.506-0.023-0.707c0.189-0.203,0.506-0.21,0.707-0.023 c0.799,0.749,1.374,1.468,1.983,2.229c0.176,0.221,0.357,0.447,0.551,0.683c0.175,0.214,0.144,0.529-0.069,0.704 C74.213,30.827,74.101,30.864,73.989,30.864z"/></svg>